<?xml version="1.0" standalone="no"?><!DOCTYPE svg PUBLIC "-//W3C//DTD SVG 1.1//EN" "http://www.w3.org/Graphics/SVG/1.1/DTD/svg11.dtd"><svg t="1774191105594" class="icon" viewBox="0 0 1024 1024" version="1.1" xmlns="http://www.w3.org/2000/svg" p-id="67932" width="16" height="18" xmlns:xlink="http://www.w3.org/1999/xlink"><path d="M138.209882 150.768941h747.580236a68.788706 68.788706 0 0 1 68.668235 68.668235v585.155765a68.788706 68.788706 0 0 1-68.668235 68.638118H138.209882a68.788706 68.788706 0 0 1-68.668235-68.668235V219.437176a68.788706 68.788706 0 0 1 68.668235-68.638117z m12.649412 88.395294v82.070589c0 2.499765 2.048 4.577882 4.577882 4.577882h714.511059a4.608 4.608 0 0 0 4.577883-4.577882V239.134118a4.577882 4.577882 0 0 0-4.577883-4.608H155.407059a4.577882 4.577882 0 0 0-4.577883 4.608z m284.16 488.176941l223.081412-124.175058a12.8 12.8 0 0 0 0-22.377412l-223.081412-124.205177a12.8 12.8 0 0 0-19.034353 11.14353v248.410353a12.8 12.8 0 0 0 19.034353 11.203764z" fill="#515151" p-id="67933"></path></svg>